<?xml version="1.0" standalone="no"?>
<!DOCTYPE svg PUBLIC "-//W3C//DTD SVG 20010904//EN"
 "http://www.w3.org/TR/2001/REC-SVG-20010904/DTD/svg10.dtd">
<svg version="1.0" xmlns="http://www.w3.org/2000/svg"
 width="1001.000000pt" height="1001.000000pt" viewBox="0 0 1001.000000 1001.000000"
 preserveAspectRatio="xMidYMid meet">
<metadata>
Created by potrace 1.11, written by Peter Selinger 2001-2013
</metadata>
<g transform="translate(0.000000,1001.000000) scale(0.100000,-0.100000)"
fill="#000000" stroke="none">
<path d="M6984 9371 c-2 -2 -18 -5 -36 -7 -18 -1 -49 -6 -68 -9 -19 -4 -46 -8
-60 -10 -14 -1 -50 -10 -81 -19 -31 -9 -65 -18 -75 -21 -18 -4 -139 -47 -174
-62 -8 -3 -20 -7 -27 -9 -24 -5 -281 -134 -378 -190 -82 -47 -247 -153 -290
-186 -5 -4 -68 -51 -140 -104 -71 -54 -184 -143 -250 -199 -124 -106 -146
-126 -278 -252 l-77 -74 -58 55 c-95 93 -157 149 -201 186 -23 19 -52 44 -65
55 -57 51 -204 168 -296 236 -89 66 -274 191 -310 209 -14 7 -27 16 -30 19
-16 20 -277 155 -410 213 -52 23 -228 88 -250 93 -8 2 -15 4 -15 5 0 1 -9 3
-20 4 -11 2 -40 9 -65 16 -25 7 -58 14 -75 17 -16 2 -41 7 -55 9 -93 19 -360
22 -360 4 0 -3 -12 -5 -27 -4 -16 1 -32 -2 -38 -6 -11 -8 -85 -24 -97 -22 -5
1 -8 -2 -8 -7 0 -5 -15 -14 -33 -20 -77 -26 -211 -133 -283 -226 -48 -63 -151
-245 -138 -245 3 0 2 -6 -3 -12 -21 -26 -85 -237 -99 -323 -3 -21 -8 -47 -10
-59 -4 -20 -9 -58 -19 -136 -26 -204 -22 -603 9 -835 3 -22 8 -62 11 -90 4
-27 8 -61 11 -75 3 -14 7 -36 9 -50 12 -87 65 -355 95 -480 37 -152 38 -145
-12 -157 -24 -6 -74 -21 -113 -33 -38 -11 -80 -23 -93 -26 -13 -2 -53 -16 -90
-30 -37 -14 -74 -27 -82 -29 -8 -2 -53 -17 -100 -35 -47 -17 -89 -33 -95 -34
-5 -2 -27 -10 -47 -20 -21 -9 -39 -16 -41 -16 -3 0 -22 -8 -43 -17 -22 -9 -41
-17 -44 -18 -3 0 -35 -15 -73 -33 -37 -17 -71 -32 -75 -33 -33 -7 -424 -226
-430 -241 -2 -4 -8 -8 -13 -8 -9 0 -159 -105 -234 -165 -57 -45 -236 -223
-284 -283 -90 -110 -185 -297 -206 -403 -11 -57 -23 -172 -19 -199 1 -14 5
-45 9 -70 3 -25 6 -49 7 -55 3 -28 61 -181 87 -227 51 -94 66 -118 74 -118 4
0 7 -5 7 -11 0 -37 223 -272 365 -384 28 -22 52 -43 53 -47 2 -5 10 -8 17 -8
7 0 15 -4 17 -8 2 -4 32 -28 68 -52 36 -25 67 -47 70 -50 3 -3 16 -12 30 -20
14 -8 61 -36 105 -63 117 -71 441 -229 585 -285 69 -27 134 -53 145 -57 11 -4
25 -9 30 -11 19 -5 160 -54 175 -61 8 -3 20 -7 25 -8 30 -8 248 -74 250 -77 2
-2 -10 -57 -26 -123 -16 -66 -32 -133 -35 -149 -3 -16 -6 -32 -8 -35 -2 -3 -7
-28 -10 -55 -4 -27 -9 -52 -11 -55 -1 -3 -6 -24 -9 -46 -5 -34 -17 -96 -21
-115 -1 -3 -5 -32 -9 -65 -5 -33 -10 -69 -13 -80 -2 -11 -6 -45 -9 -75 -3 -30
-7 -71 -9 -90 -20 -162 -25 -501 -11 -665 10 -115 14 -160 16 -160 1 0 3 -16
6 -35 2 -19 9 -59 15 -87 6 -29 11 -56 11 -60 1 -8 25 -97 34 -123 3 -8 5 -16
5 -17 0 -5 29 -88 38 -108 5 -11 22 -47 36 -80 55 -121 143 -239 249 -333 63
-56 217 -131 306 -149 14 -3 36 -7 50 -10 37 -7 323 -11 335 -4 6 3 19 6 30 7
23 2 77 11 120 21 92 21 256 72 270 84 5 5 19 9 30 9 12 0 25 3 29 8 4 4 11 7
14 8 24 3 302 141 383 190 31 19 60 34 63 34 4 0 12 5 19 10 7 6 69 48 138 94
112 73 361 257 397 292 7 7 33 30 59 51 26 21 56 47 68 58 11 11 45 42 75 69
30 26 85 77 121 112 37 35 69 64 73 64 3 0 27 -21 54 -47 54 -54 219 -204 293
-268 162 -139 522 -405 549 -405 4 0 15 -9 25 -20 10 -11 23 -20 29 -20 6 0
38 -18 72 -39 80 -51 305 -160 420 -205 93 -36 285 -89 364 -101 25 -4 54 -9
65 -12 29 -6 246 -5 275 1 13 3 42 8 64 12 84 12 215 69 290 124 52 39 132
120 172 175 72 98 80 111 94 145 6 14 22 50 37 80 36 77 74 184 88 246 2 10
13 61 25 112 24 108 31 157 47 327 14 147 7 547 -11 690 -3 17 -7 55 -10 85
-3 30 -7 64 -10 75 -2 11 -7 46 -11 79 -8 68 -10 79 -36 211 -11 55 -22 109
-24 120 -8 46 -17 85 -40 173 l-23 93 25 10 c13 5 28 9 32 9 4 0 37 10 72 21
35 12 69 22 74 24 6 1 17 5 25 8 8 3 31 10 50 16 79 23 370 133 465 176 101
47 349 169 400 198 85 48 229 138 235 147 3 4 16 13 29 20 14 7 30 17 35 22 6
5 45 34 86 65 133 100 282 246 361 353 27 36 53 70 59 77 5 7 10 14 10 17 0 2
15 31 34 64 31 55 74 156 81 192 2 8 7 33 13 55 21 86 19 280 -3 316 -4 5 -8
19 -10 32 -15 78 -123 282 -189 354 -6 6 -22 25 -35 42 -50 66 -185 193 -292
276 -35 27 -65 53 -67 57 -2 5 -8 8 -12 8 -5 0 -37 20 -72 44 -209 146 -572
327 -883 441 -55 20 -107 39 -115 42 -8 4 -17 7 -20 8 -22 6 -248 78 -260 83
-8 3 -19 6 -25 7 -83 20 -123 38 -120 53 2 9 8 37 14 62 7 25 14 56 17 70 3
14 9 41 14 60 5 19 12 49 15 65 17 92 55 304 60 339 4 23 8 54 11 70 3 16 7
52 9 80 3 28 7 62 10 75 26 131 26 758 1 851 -3 8 -8 42 -11 75 -4 32 -8 62
-10 66 -3 3 -7 21 -9 40 -3 19 -12 61 -21 93 -8 33 -17 67 -19 75 -2 9 -6 23
-9 31 -3 8 -17 44 -31 80 -35 96 -77 180 -122 245 -21 32 -43 64 -49 73 -12
19 -113 118 -152 149 -78 63 -254 131 -363 139 -72 6 -211 9 -216 5z m192
-245 c263 -30 439 -233 540 -618 1 -5 2 -9 3 -10 2 -2 4 -15 6 -31 2 -15 8
-51 14 -80 27 -133 36 -254 35 -492 0 -194 -3 -257 -18 -420 -6 -65 -24 -197
-31 -235 -3 -13 -7 -40 -10 -60 -5 -35 -10 -61 -20 -110 -2 -14 -7 -41 -10
-60 -8 -44 -19 -98 -51 -233 -23 -97 -28 -107 -45 -102 -11 4 -73 18 -137 31
-64 14 -128 27 -142 30 -14 3 -33 6 -42 7 -10 1 -18 5 -18 10 0 4 -4 6 -8 3
-4 -3 -27 -1 -49 4 -23 6 -63 12 -89 15 -26 4 -51 8 -54 10 -4 2 -29 7 -56 11
-27 3 -58 8 -69 10 -11 3 -33 7 -50 9 -16 3 -41 7 -55 10 -14 3 -47 8 -75 10
-27 3 -61 7 -75 10 -14 3 -47 7 -75 10 -27 3 -61 7 -75 10 -14 3 -50 8 -80 11
-30 3 -71 7 -90 9 -19 3 -64 7 -99 9 -81 6 -121 15 -121 26 0 8 -108 166 -137
200 -7 8 -31 40 -52 70 -22 30 -46 62 -54 70 -7 8 -24 31 -38 50 -13 19 -29
42 -36 50 -6 8 -60 76 -120 150 -59 74 -112 140 -118 146 -5 6 -26 30 -45 53
-19 23 -51 59 -70 80 -19 22 -57 65 -85 97 -27 31 -66 74 -85 94 -80 82 -79
71 -10 137 229 216 373 340 551 471 120 89 333 227 424 277 39 20 85 46 103
57 17 11 32 16 32 11 0 -4 4 -3 8 3 13 19 280 126 372 149 89 22 175 38 218
40 29 2 55 5 57 7 5 4 56 2 131 -6z m-4081 -11 c153 -13 282 -48 481 -130 87
-36 334 -161 344 -175 3 -3 12 -9 22 -13 25 -9 223 -139 226 -148 2 -5 8 -9
13 -9 5 0 44 -26 87 -57 212 -159 415 -331 578 -492 l34 -33 -28 -32 c-15 -17
-46 -51 -67 -75 -22 -25 -52 -58 -66 -73 -15 -16 -53 -59 -85 -95 -33 -37 -67
-75 -76 -85 -10 -10 -18 -20 -18 -23 0 -3 -13 -20 -30 -38 -16 -17 -55 -63
-86 -102 -31 -38 -66 -81 -77 -95 -25 -28 -134 -171 -157 -204 -8 -11 -26 -35
-40 -52 -14 -17 -34 -44 -45 -59 -11 -16 -32 -44 -47 -63 -16 -19 -28 -38 -28
-42 0 -4 -8 -16 -17 -28 -43 -50 -50 -59 -55 -73 -4 -9 -21 -16 -44 -17 -22
-2 -57 -5 -79 -7 -22 -2 -65 -7 -95 -10 -30 -3 -71 -7 -90 -9 -19 -2 -62 -7
-95 -11 -33 -3 -67 -8 -75 -10 -20 -5 -96 -16 -145 -20 -52 -5 -144 -23 -157
-31 -7 -5 -8 -2 -3 6 5 9 4 11 -4 6 -6 -4 -84 -21 -174 -37 -89 -16 -172 -32
-184 -34 -13 -3 -33 -7 -45 -9 -21 -3 -54 -10 -103 -21 -98 -23 -145 -32 -145
-28 0 3 -7 0 -15 -7 -8 -7 -15 -10 -15 -8 0 3 -9 40 -21 84 -11 43 -23 90 -25
104 -3 14 -11 50 -19 80 -19 80 -47 230 -49 262 0 16 -3 28 -6 28 -3 0 -6 8
-6 18 -1 18 -13 113 -19 144 -2 11 -7 47 -11 81 -3 34 -8 80 -10 102 -21 201
-21 594 0 700 2 11 7 40 10 65 6 43 10 68 21 118 3 12 7 34 10 50 18 92 102
301 149 366 66 93 130 152 206 189 35 18 67 32 70 33 3 0 20 4 39 8 39 9 171
23 186 20 6 -2 42 -5 80 -9z m2032 -1312 c39 -43 88 -98 109 -123 55 -63 86
-98 109 -124 11 -12 35 -41 53 -64 19 -22 42 -51 53 -64 10 -13 22 -27 26 -33
37 -47 89 -111 94 -115 12 -11 139 -180 139 -185 0 -3 9 -15 20 -27 11 -12 32
-40 47 -62 16 -23 34 -47 41 -54 6 -7 12 -15 12 -18 0 -2 -33 -2 -72 0 -377
24 -878 25 -1416 1 l-82 -3 17 23 c128 170 311 406 323 415 3 3 24 28 45 55
22 28 42 52 45 55 3 3 27 32 55 65 27 33 62 74 77 90 40 42 94 102 162 179 32
36 61 66 65 66 4 0 39 -35 78 -77z m333 -1098 c256 -9 307 -12 320 -20 5 -3
10 -1 10 5 0 6 4 9 9 5 6 -3 45 -8 88 -10 88 -5 123 -11 134 -22 4 -5 48 -71
98 -148 50 -77 96 -146 102 -153 6 -7 16 -23 22 -35 7 -12 37 -62 67 -110 30
-48 63 -101 72 -117 10 -17 45 -75 78 -130 80 -132 230 -401 230 -412 0 -4 3
-8 8 -8 4 0 18 -24 32 -53 13 -28 33 -64 43 -79 10 -16 15 -28 12 -28 -3 0 2
-12 13 -27 10 -16 55 -101 100 -190 l81 -161 -20 -44 c-30 -63 -39 -81 -102
-205 -31 -62 -57 -116 -56 -119 0 -4 -3 -10 -8 -13 -4 -3 -23 -35 -42 -71 -35
-69 -57 -108 -158 -289 -34 -62 -63 -117 -63 -121 0 -4 -6 -13 -14 -19 -8 -7
-24 -31 -35 -54 -26 -51 -61 -110 -70 -117 -3 -3 -13 -18 -21 -35 -8 -16 -17
-32 -20 -35 -3 -3 -16 -25 -29 -50 -14 -25 -32 -56 -41 -70 -9 -14 -28 -43
-42 -65 -14 -22 -47 -74 -74 -115 -27 -41 -55 -86 -64 -101 -47 -79 -97 -149
-110 -154 -42 -17 -593 -39 -980 -38 -354 0 -819 16 -942 32 -3 1 -19 21 -35
46 -15 25 -31 45 -35 45 -5 0 -8 5 -8 10 0 6 -32 58 -70 115 -38 57 -70 109
-70 115 0 5 -4 10 -8 10 -10 0 -232 364 -232 380 0 5 -4 10 -9 12 -24 9 -501
904 -501 941 0 12 209 433 262 527 14 25 34 61 45 80 11 19 35 62 53 95 18 33
60 107 92 164 33 58 65 114 72 125 6 12 13 23 16 26 3 3 32 50 64 105 54 91
165 265 299 468 29 42 59 79 67 82 14 4 115 11 280 20 36 2 164 7 285 10 121
4 221 8 222 9 4 4 406 -2 583 -9z m-1700 -71 c-7 -8 -9 -14 -4 -14 5 0 4 -4
-2 -8 -10 -7 -94 -129 -94 -137 0 -8 -65 -100 -72 -103 -5 -2 -8 -8 -8 -12 0
-5 -46 -84 -101 -177 -103 -170 -199 -336 -260 -451 -19 -35 -39 -71 -44 -80
-6 -9 -51 -96 -99 -192 l-88 -174 -17 34 c-9 19 -34 78 -55 130 -21 52 -47
112 -57 133 -10 20 -16 37 -13 37 4 0 2 6 -4 13 -6 7 -40 93 -76 192 -37 99
-73 195 -81 213 -8 18 -15 41 -15 51 0 10 -3 21 -7 25 -5 4 -9 12 -9 17 -1 5
-2 10 -4 12 -1 1 -3 9 -5 17 -2 8 -22 71 -44 139 -23 68 -41 129 -41 135 0 10
120 41 235 62 16 3 61 12 100 20 38 8 86 17 105 20 60 9 80 13 98 18 9 2 39 7
66 11 27 3 84 13 127 21 42 8 81 14 86 13 4 -1 10 0 13 1 3 1 19 3 35 5 17 1
55 6 85 10 286 39 264 37 250 19z m2650 2 c78 -9 140 -17 175 -22 17 -2 50 -6
75 -9 25 -3 110 -17 189 -30 79 -13 148 -22 153 -19 4 3 8 1 8 -3 0 -5 15 -10
33 -11 17 -1 73 -11 122 -22 50 -10 101 -21 115 -24 14 -2 61 -12 105 -21 156
-33 157 -34 149 -59 -23 -79 -40 -132 -66 -206 -16 -47 -31 -92 -33 -100 -5
-22 -67 -191 -108 -295 -20 -49 -47 -119 -60 -155 -14 -36 -55 -133 -92 -217
l-67 -152 -35 67 c-101 194 -169 321 -190 354 -13 21 -23 40 -23 43 0 3 -11
22 -23 43 -13 20 -43 73 -67 117 -24 44 -65 115 -92 158 -26 43 -48 83 -48 88
0 5 -3 9 -8 9 -4 0 -13 15 -21 33 -8 17 -17 34 -21 37 -3 3 -24 37 -47 75 -49
81 -187 295 -202 312 -7 8 -7 13 2 16 7 2 14 3 17 2 3 -2 30 -6 60 -9z m-4069
-318 c13 -40 23 -75 24 -78 1 -3 4 -12 8 -20 9 -25 41 -125 42 -132 0 -3 3
-10 8 -14 4 -4 7 -14 7 -23 0 -14 68 -206 90 -256 5 -11 19 -47 30 -80 12 -33
25 -69 30 -80 4 -11 18 -45 30 -75 11 -30 25 -64 30 -75 5 -11 23 -54 40 -95
51 -123 71 -170 122 -279 26 -57 48 -105 48 -107 0 -2 -13 -33 -30 -69 -16
-36 -43 -94 -60 -130 -17 -36 -30 -68 -30 -71 0 -3 -9 -24 -19 -47 -39 -86
-140 -335 -171 -422 -17 -49 -38 -104 -45 -121 -15 -32 -164 -476 -170 -507
-6 -26 -15 -38 -26 -32 -5 4 -18 8 -29 10 -40 8 -318 96 -370 118 -14 6 -27
11 -30 12 -19 4 -91 31 -120 43 -19 9 -37 16 -40 17 -3 1 -22 9 -44 18 -21 9
-40 17 -42 17 -6 0 -181 82 -258 121 -338 171 -641 395 -800 593 -91 113 -163
246 -186 345 -13 56 -16 193 -5 211 4 6 8 23 11 38 5 33 85 199 111 229 10 12
29 37 42 55 26 35 189 199 231 233 68 54 181 136 230 166 30 18 57 36 60 39 9
11 247 140 259 140 6 0 11 4 11 10 0 5 3 9 8 8 4 -1 43 16 87 36 145 68 171
79 340 143 110 41 309 109 345 118 62 16 194 55 198 60 9 9 11 6 33 -67z
m5556 26 c81 -17 509 -169 628 -223 194 -88 255 -118 346 -167 57 -31 135 -76
172 -100 37 -24 72 -44 77 -44 6 0 10 -3 10 -7 0 -5 17 -19 38 -33 125 -82
299 -236 365 -323 12 -16 27 -34 32 -40 29 -34 63 -86 76 -114 8 -18 17 -33
21 -33 5 0 7 -3 6 -7 -1 -5 6 -25 15 -47 17 -40 22 -57 35 -136 19 -109 -16
-242 -100 -378 -75 -123 -221 -280 -353 -377 -22 -17 -44 -35 -50 -41 -5 -6
-37 -29 -70 -50 -33 -21 -62 -41 -65 -45 -4 -5 -121 -75 -241 -143 -71 -40
-353 -174 -384 -182 -5 -2 -55 -21 -110 -44 -92 -38 -396 -144 -441 -155 -10
-2 -38 -10 -62 -16 -23 -6 -44 -10 -46 -8 -3 5 -85 247 -91 269 -31 125 -254
671 -409 1003 -25 54 -46 103 -46 108 0 5 14 40 31 77 133 286 313 732 378
937 12 39 26 79 31 90 13 31 60 174 60 184 0 5 7 25 15 44 l15 36 47 -15 c27
-8 58 -17 70 -20z m-707 -1789 c86 -190 207 -499 285 -726 63 -180 85 -249 85
-259 0 -8 -131 -40 -230 -56 -19 -3 -38 -8 -41 -10 -4 -2 -24 -6 -45 -9 -22
-4 -46 -8 -54 -10 -17 -5 -75 -16 -105 -20 -11 -2 -20 -4 -20 -5 0 -1 -11 -3
-25 -5 -14 -2 -43 -6 -65 -10 -22 -3 -51 -8 -64 -10 -13 -2 -45 -7 -70 -11
-25 -4 -55 -8 -66 -10 -34 -7 -116 -18 -215 -28 -31 -4 -71 -8 -90 -11 -19 -2
-59 -7 -87 -11 -29 -3 -53 -4 -53 0 0 3 35 61 79 129 90 142 262 428 341 567
29 52 66 116 82 143 15 26 28 49 28 52 0 2 13 26 28 52 16 27 53 95 82 153 29
58 62 117 72 133 11 15 17 27 13 27 -6 0 25 60 36 70 3 3 9 14 13 25 6 16 12
9 33 -40 14 -33 38 -87 53 -120z m-4119 -1 c44 -87 91 -177 104 -199 40 -71
67 -118 113 -205 25 -47 49 -87 52 -90 4 -3 13 -20 21 -37 8 -18 17 -33 21
-33 5 0 8 -5 8 -10 0 -6 12 -29 27 -53 15 -23 32 -51 38 -62 25 -45 40 -70 45
-75 3 -3 25 -39 50 -80 24 -41 83 -135 132 -209 48 -75 88 -139 88 -143 0 -5
-12 -6 -27 -4 -32 5 -129 16 -188 22 -37 3 -62 6 -165 18 -19 3 -35 5 -35 6 0
1 -13 3 -30 4 -31 3 -100 13 -145 21 -14 2 -45 7 -70 10 -25 3 -65 10 -90 15
-38 7 -149 28 -240 45 -14 2 -45 9 -70 15 -25 5 -58 12 -75 15 -16 4 -37 8
-45 10 -8 2 -21 4 -29 4 -9 1 -11 8 -7 24 4 12 8 27 10 32 4 19 47 150 55 170
5 11 16 47 26 80 10 33 22 71 28 85 5 14 11 30 13 35 2 10 19 55 72 200 31 83
84 218 107 270 18 42 36 86 81 192 21 51 39 91 41 89 2 -1 39 -74 84 -162z
m4568 -1262 c26 -94 62 -259 75 -337 3 -16 7 -39 9 -50 13 -60 34 -202 42
-275 2 -19 4 -35 5 -35 2 0 3 -13 16 -190 12 -164 8 -590 -6 -590 0 0 -3 -20
-5 -45 -8 -88 -12 -107 -44 -245 -69 -288 -208 -507 -373 -588 -50 -25 -93
-38 -163 -52 -37 -7 -211 -7 -245 0 -47 9 -75 15 -100 19 -14 3 -35 7 -47 10
-13 4 -31 8 -40 10 -10 2 -52 16 -93 30 -41 15 -79 28 -85 30 -51 16 -299 137
-390 191 -144 86 -395 257 -455 311 -8 8 -44 38 -80 66 -36 29 -67 55 -70 58
-3 3 -21 18 -40 34 -52 42 -195 173 -263 240 -58 57 -59 60 -40 75 11 9 71 75
133 146 62 72 120 138 129 147 9 9 21 23 26 30 48 61 111 140 138 172 18 21
36 46 41 55 5 9 15 21 22 26 6 6 45 55 85 110 41 55 79 106 86 115 40 51 87
117 147 205 88 129 94 134 141 139 44 5 158 17 220 22 22 2 54 5 70 8 17 2 59
7 95 11 36 4 72 8 80 10 8 1 40 6 71 9 31 4 67 9 80 12 13 3 35 7 49 8 14 2
44 7 68 11 23 4 52 8 65 10 52 6 115 17 157 27 62 13 72 16 112 22 19 3 91 17
159 32 68 14 129 27 136 28 7 1 15 4 17 7 3 2 16 5 30 7 21 1 27 -4 35 -36z
m-5104 8 c22 -6 56 -13 75 -16 19 -3 38 -8 41 -9 3 -2 28 -7 55 -10 27 -4 58
-9 69 -13 23 -7 28 -8 79 -16 21 -4 48 -8 60 -11 30 -7 75 -15 121 -21 22 -3
51 -8 65 -10 14 -3 45 -7 70 -9 25 -3 56 -7 70 -10 45 -9 64 -12 125 -19 33
-4 74 -9 90 -12 17 -2 57 -6 90 -10 33 -3 74 -7 90 -9 17 -2 64 -7 105 -11 41
-3 84 -7 95 -9 11 -1 41 -3 68 -4 46 -1 48 -3 92 -63 25 -35 48 -67 53 -73 4
-5 25 -35 47 -65 22 -30 50 -66 62 -80 13 -14 23 -28 23 -31 0 -3 8 -15 18
-27 10 -11 27 -33 38 -48 24 -34 176 -227 184 -234 3 -3 25 -30 50 -60 25 -30
47 -57 50 -60 3 -3 29 -34 59 -70 54 -65 160 -185 258 -289 29 -31 53 -59 53
-63 0 -3 -24 -29 -52 -56 -134 -127 -159 -150 -208 -192 -29 -25 -58 -50 -64
-55 -6 -6 -33 -28 -61 -50 -27 -22 -55 -47 -62 -55 -7 -8 -13 -12 -13 -8 0 3
-15 -7 -32 -22 -36 -32 -44 -38 -217 -157 -135 -94 -250 -163 -399 -239 -57
-29 -106 -53 -110 -55 -4 -1 -29 -12 -57 -24 -120 -53 -307 -109 -435 -131
-58 -10 -254 -11 -305 -2 -201 36 -349 172 -446 409 -34 84 -84 267 -94 348
-4 30 -8 62 -10 71 -18 91 -25 482 -12 620 3 30 8 86 11 124 4 39 13 117 22
175 9 59 18 117 19 131 2 14 4 26 5 28 1 1 3 10 4 20 2 15 14 85 21 122 3 15
43 189 51 223 2 9 6 25 8 35 17 72 29 112 35 112 3 0 24 -5 46 -10z m2015
-237 c102 -3 334 -6 515 -6 290 1 416 4 698 17 37 1 67 -1 67 -6 0 -13 -305
-421 -380 -508 -8 -9 -26 -32 -40 -50 -14 -18 -33 -42 -43 -54 -11 -11 -40
-45 -65 -75 -26 -30 -54 -62 -62 -71 -16 -17 -112 -128 -146 -167 -10 -13 -23
-23 -30 -23 -6 0 -44 37 -85 82 -41 45 -87 96 -103 113 -15 16 -49 55 -75 85
-25 30 -56 65 -68 78 -13 12 -23 25 -23 28 0 2 -35 46 -77 97 -43 50 -85 100
-93 111 -8 10 -21 24 -27 31 -7 8 -13 18 -13 23 0 6 -4 12 -8 14 -4 2 -44 50
-87 108 -44 58 -82 107 -85 110 -21 21 -48 69 -39 72 5 2 27 2 47 1 20 -2 120
-6 222 -10z"/>
<path d="M4949 5906 c-2 -2 -24 -7 -49 -10 -332 -45 -634 -321 -721 -656 -19
-76 -22 -101 -23 -215 0 -124 8 -204 24 -235 6 -11 8 -20 5 -20 -6 0 19 -66
58 -152 17 -38 34 -68 38 -68 4 0 11 -9 14 -21 7 -21 18 -36 85 -113 120 -138
309 -246 490 -280 14 -3 36 -7 50 -11 29 -6 203 -7 240 -1 86 14 107 19 123
27 9 5 17 8 17 5 0 -9 121 43 183 78 155 87 283 221 365 383 27 51 70 183 79
238 9 51 9 271 1 310 -20 95 -32 136 -65 211 -20 46 -40 84 -45 84 -4 0 -8 6
-8 13 0 21 -99 144 -164 204 -35 32 -94 76 -132 98 -72 43 -194 98 -194 88 0
-3 -6 -1 -12 5 -7 5 -29 13 -48 16 -19 4 -46 9 -60 12 -32 6 -246 15 -251 10z"/>
</g>
</svg>
